<mxfile host="app.diagrams.net" modified="2024-03-02T00:03:30.877Z" agent="Mozilla/5.0 (Windows NT 10.0; Win64; x64) AppleWebKit/537.36 (KHTML, like Gecko) Chrome/122.0.0.0 Safari/537.36" etag="N1UpzK-DzmjbjObuF4qO" version="24.0.0" type="device">
  <diagram name="Page-1" id="8NYxzYodRxHyNJgZvf4s">
    <mxGraphModel dx="1644" dy="420" grid="1" gridSize="10" guides="1" tooltips="1" connect="1" arrows="1" fold="1" page="1" pageScale="1" pageWidth="850" pageHeight="1100" math="0" shadow="0">
      <root>
        <mxCell id="0" />
        <mxCell id="1" parent="0" />
        <mxCell id="JpUHTsAU69_Z2bJbJT-Z-1" value="&lt;font style=&quot;font-size: 18px;&quot;&gt;User&lt;/font&gt;" style="rounded=0;whiteSpace=wrap;html=1;" vertex="1" parent="1">
          <mxGeometry x="240" y="162.5" width="120" height="60" as="geometry" />
        </mxCell>
        <mxCell id="JpUHTsAU69_Z2bJbJT-Z-2" value="" style="endArrow=none;html=1;rounded=0;exitX=0;exitY=0.25;exitDx=0;exitDy=0;entryX=0.719;entryY=0.947;entryDx=0;entryDy=0;entryPerimeter=0;" edge="1" parent="1" source="JpUHTsAU69_Z2bJbJT-Z-1" target="JpUHTsAU69_Z2bJbJT-Z-4">
          <mxGeometry width="50" height="50" relative="1" as="geometry">
            <mxPoint x="230" y="182.5" as="sourcePoint" />
            <mxPoint x="217.27272727272725" y="152.5" as="targetPoint" />
          </mxGeometry>
        </mxCell>
        <mxCell id="JpUHTsAU69_Z2bJbJT-Z-4" value="id" style="ellipse;whiteSpace=wrap;html=1;rotation=-15;" vertex="1" parent="1">
          <mxGeometry x="100" y="102.5" width="90" height="50" as="geometry" />
        </mxCell>
        <mxCell id="JpUHTsAU69_Z2bJbJT-Z-5" value="" style="endArrow=none;html=1;rounded=0;exitX=1;exitY=0;exitDx=0;exitDy=0;entryX=0.059;entryY=0.72;entryDx=0;entryDy=0;entryPerimeter=0;" edge="1" parent="1" source="JpUHTsAU69_Z2bJbJT-Z-1" target="JpUHTsAU69_Z2bJbJT-Z-6">
          <mxGeometry width="50" height="50" relative="1" as="geometry">
            <mxPoint x="390" y="162.5" as="sourcePoint" />
            <mxPoint x="367.27272727272725" y="137.5" as="targetPoint" />
          </mxGeometry>
        </mxCell>
        <mxCell id="JpUHTsAU69_Z2bJbJT-Z-6" value="password" style="ellipse;whiteSpace=wrap;html=1;" vertex="1" parent="1">
          <mxGeometry x="415" y="72.5" width="90" height="50" as="geometry" />
        </mxCell>
        <mxCell id="JpUHTsAU69_Z2bJbJT-Z-8" value="" style="endArrow=none;html=1;rounded=0;exitX=0.25;exitY=0;exitDx=0;exitDy=0;entryX=0.5;entryY=1;entryDx=0;entryDy=0;" edge="1" parent="1" source="JpUHTsAU69_Z2bJbJT-Z-1" target="JpUHTsAU69_Z2bJbJT-Z-9">
          <mxGeometry width="50" height="50" relative="1" as="geometry">
            <mxPoint x="300" y="145" as="sourcePoint" />
            <mxPoint x="277.27272727272725" y="120" as="targetPoint" />
          </mxGeometry>
        </mxCell>
        <mxCell id="JpUHTsAU69_Z2bJbJT-Z-9" value="name" style="ellipse;whiteSpace=wrap;html=1;" vertex="1" parent="1">
          <mxGeometry x="190" y="72.5" width="90" height="50" as="geometry" />
        </mxCell>
        <mxCell id="JpUHTsAU69_Z2bJbJT-Z-10" value="" style="endArrow=none;html=1;rounded=0;exitX=0.5;exitY=0;exitDx=0;exitDy=0;entryX=0.4;entryY=0.997;entryDx=0;entryDy=0;entryPerimeter=0;" edge="1" parent="1" source="JpUHTsAU69_Z2bJbJT-Z-1" target="JpUHTsAU69_Z2bJbJT-Z-11">
          <mxGeometry width="50" height="50" relative="1" as="geometry">
            <mxPoint x="380" y="135" as="sourcePoint" />
            <mxPoint x="357.27272727272725" y="110" as="targetPoint" />
          </mxGeometry>
        </mxCell>
        <mxCell id="JpUHTsAU69_Z2bJbJT-Z-11" value="email(username)" style="ellipse;whiteSpace=wrap;html=1;" vertex="1" parent="1">
          <mxGeometry x="290" y="60" width="100" height="50" as="geometry" />
        </mxCell>
        <mxCell id="JpUHTsAU69_Z2bJbJT-Z-12" value="" style="endArrow=none;html=1;rounded=0;exitX=1;exitY=0.25;exitDx=0;exitDy=0;entryX=0;entryY=0.5;entryDx=0;entryDy=0;" edge="1" parent="1" target="JpUHTsAU69_Z2bJbJT-Z-13">
          <mxGeometry width="50" height="50" relative="1" as="geometry">
            <mxPoint x="360" y="190" as="sourcePoint" />
            <mxPoint x="527.2727272727273" y="195" as="targetPoint" />
          </mxGeometry>
        </mxCell>
        <mxCell id="JpUHTsAU69_Z2bJbJT-Z-13" value="about" style="ellipse;whiteSpace=wrap;html=1;" vertex="1" parent="1">
          <mxGeometry x="460" y="122.5" width="90" height="50" as="geometry" />
        </mxCell>
        <mxCell id="JpUHTsAU69_Z2bJbJT-Z-14" value="&lt;font style=&quot;font-size: 18px;&quot;&gt;Post&lt;/font&gt;" style="rounded=0;whiteSpace=wrap;html=1;" vertex="1" parent="1">
          <mxGeometry x="730" y="205" width="120" height="60" as="geometry" />
        </mxCell>
        <mxCell id="JpUHTsAU69_Z2bJbJT-Z-15" value="" style="endArrow=none;html=1;rounded=0;exitX=0;exitY=0.25;exitDx=0;exitDy=0;entryX=0.719;entryY=0.947;entryDx=0;entryDy=0;entryPerimeter=0;" edge="1" parent="1" source="JpUHTsAU69_Z2bJbJT-Z-14" target="JpUHTsAU69_Z2bJbJT-Z-16">
          <mxGeometry width="50" height="50" relative="1" as="geometry">
            <mxPoint x="720" y="225" as="sourcePoint" />
            <mxPoint x="707.2727272727273" y="195" as="targetPoint" />
          </mxGeometry>
        </mxCell>
        <mxCell id="JpUHTsAU69_Z2bJbJT-Z-16" value="post_id" style="ellipse;whiteSpace=wrap;html=1;rotation=-15;" vertex="1" parent="1">
          <mxGeometry x="590" y="145" width="90" height="50" as="geometry" />
        </mxCell>
        <mxCell id="JpUHTsAU69_Z2bJbJT-Z-17" value="" style="endArrow=none;html=1;rounded=0;exitX=1;exitY=0;exitDx=0;exitDy=0;entryX=0.059;entryY=0.72;entryDx=0;entryDy=0;entryPerimeter=0;" edge="1" parent="1" source="JpUHTsAU69_Z2bJbJT-Z-14" target="JpUHTsAU69_Z2bJbJT-Z-18">
          <mxGeometry width="50" height="50" relative="1" as="geometry">
            <mxPoint x="880" y="205" as="sourcePoint" />
            <mxPoint x="857.2727272727273" y="180" as="targetPoint" />
          </mxGeometry>
        </mxCell>
        <mxCell id="JpUHTsAU69_Z2bJbJT-Z-18" value="image" style="ellipse;whiteSpace=wrap;html=1;" vertex="1" parent="1">
          <mxGeometry x="905" y="115" width="90" height="50" as="geometry" />
        </mxCell>
        <mxCell id="JpUHTsAU69_Z2bJbJT-Z-19" value="" style="endArrow=none;html=1;rounded=0;exitX=0.25;exitY=0;exitDx=0;exitDy=0;entryX=0.5;entryY=1;entryDx=0;entryDy=0;" edge="1" parent="1" source="JpUHTsAU69_Z2bJbJT-Z-14" target="JpUHTsAU69_Z2bJbJT-Z-20">
          <mxGeometry width="50" height="50" relative="1" as="geometry">
            <mxPoint x="790" y="187.5" as="sourcePoint" />
            <mxPoint x="767.2727272727273" y="162.5" as="targetPoint" />
          </mxGeometry>
        </mxCell>
        <mxCell id="JpUHTsAU69_Z2bJbJT-Z-20" value="title" style="ellipse;whiteSpace=wrap;html=1;" vertex="1" parent="1">
          <mxGeometry x="680" y="115" width="90" height="50" as="geometry" />
        </mxCell>
        <mxCell id="JpUHTsAU69_Z2bJbJT-Z-21" value="" style="endArrow=none;html=1;rounded=0;exitX=0.5;exitY=0;exitDx=0;exitDy=0;entryX=0.4;entryY=0.997;entryDx=0;entryDy=0;entryPerimeter=0;" edge="1" parent="1" source="JpUHTsAU69_Z2bJbJT-Z-14" target="JpUHTsAU69_Z2bJbJT-Z-22">
          <mxGeometry width="50" height="50" relative="1" as="geometry">
            <mxPoint x="870" y="177.5" as="sourcePoint" />
            <mxPoint x="847.2727272727273" y="152.5" as="targetPoint" />
          </mxGeometry>
        </mxCell>
        <mxCell id="JpUHTsAU69_Z2bJbJT-Z-22" value="content" style="ellipse;whiteSpace=wrap;html=1;" vertex="1" parent="1">
          <mxGeometry x="780" y="102.5" width="100" height="50" as="geometry" />
        </mxCell>
        <mxCell id="JpUHTsAU69_Z2bJbJT-Z-23" value="" style="endArrow=none;html=1;rounded=0;exitX=1;exitY=0.25;exitDx=0;exitDy=0;entryX=0;entryY=0.5;entryDx=0;entryDy=0;" edge="1" parent="1" target="JpUHTsAU69_Z2bJbJT-Z-24">
          <mxGeometry width="50" height="50" relative="1" as="geometry">
            <mxPoint x="850" y="232.5" as="sourcePoint" />
            <mxPoint x="1017.2727272727273" y="237.5" as="targetPoint" />
          </mxGeometry>
        </mxCell>
        <mxCell id="JpUHTsAU69_Z2bJbJT-Z-24" value="&lt;b&gt;user_id&lt;/b&gt;" style="ellipse;whiteSpace=wrap;html=1;fillColor=#ffe6cc;strokeColor=#d79b00;" vertex="1" parent="1">
          <mxGeometry x="950" y="165" width="90" height="50" as="geometry" />
        </mxCell>
        <mxCell id="JpUHTsAU69_Z2bJbJT-Z-26" value="can create" style="rhombus;whiteSpace=wrap;html=1;" vertex="1" parent="1">
          <mxGeometry x="470" y="230" width="100" height="90" as="geometry" />
        </mxCell>
        <mxCell id="JpUHTsAU69_Z2bJbJT-Z-34" value="1" style="text;html=1;align=center;verticalAlign=middle;resizable=0;points=[];autosize=1;strokeColor=none;fillColor=none;" vertex="1" parent="1">
          <mxGeometry x="415" y="228" width="30" height="30" as="geometry" />
        </mxCell>
        <mxCell id="JpUHTsAU69_Z2bJbJT-Z-36" value="" style="endArrow=none;html=1;rounded=0;entryX=0;entryY=0.5;entryDx=0;entryDy=0;exitX=1;exitY=0.5;exitDx=0;exitDy=0;" edge="1" parent="1" source="JpUHTsAU69_Z2bJbJT-Z-35" target="JpUHTsAU69_Z2bJbJT-Z-14">
          <mxGeometry width="50" height="50" relative="1" as="geometry">
            <mxPoint x="570" y="278" as="sourcePoint" />
            <mxPoint x="620" y="228" as="targetPoint" />
          </mxGeometry>
        </mxCell>
        <mxCell id="JpUHTsAU69_Z2bJbJT-Z-37" value="" style="endArrow=none;html=1;rounded=0;entryX=1;entryY=1;entryDx=0;entryDy=0;exitX=0;exitY=0.5;exitDx=0;exitDy=0;" edge="1" parent="1" source="JpUHTsAU69_Z2bJbJT-Z-26" target="JpUHTsAU69_Z2bJbJT-Z-1">
          <mxGeometry width="50" height="50" relative="1" as="geometry">
            <mxPoint x="650" y="240" as="sourcePoint" />
            <mxPoint x="700" y="190" as="targetPoint" />
          </mxGeometry>
        </mxCell>
        <mxCell id="JpUHTsAU69_Z2bJbJT-Z-38" value="" style="endArrow=none;html=1;rounded=0;entryX=0;entryY=0.5;entryDx=0;entryDy=0;exitX=1;exitY=0.5;exitDx=0;exitDy=0;" edge="1" parent="1" source="JpUHTsAU69_Z2bJbJT-Z-26" target="JpUHTsAU69_Z2bJbJT-Z-35">
          <mxGeometry width="50" height="50" relative="1" as="geometry">
            <mxPoint x="570" y="275" as="sourcePoint" />
            <mxPoint x="730" y="235" as="targetPoint" />
          </mxGeometry>
        </mxCell>
        <mxCell id="JpUHTsAU69_Z2bJbJT-Z-35" value="many" style="text;html=1;align=center;verticalAlign=middle;resizable=0;points=[];autosize=1;strokeColor=none;fillColor=none;rotation=-10;" vertex="1" parent="1">
          <mxGeometry x="610" y="240" width="50" height="30" as="geometry" />
        </mxCell>
        <mxCell id="JpUHTsAU69_Z2bJbJT-Z-39" value="&lt;font style=&quot;font-size: 18px;&quot;&gt;Comment&lt;/font&gt;" style="rounded=0;whiteSpace=wrap;html=1;" vertex="1" parent="1">
          <mxGeometry x="650" y="452.5" width="120" height="60" as="geometry" />
        </mxCell>
        <mxCell id="JpUHTsAU69_Z2bJbJT-Z-41" value="" style="endArrow=none;html=1;rounded=0;exitX=1;exitY=0;exitDx=0;exitDy=0;entryX=0.059;entryY=0.72;entryDx=0;entryDy=0;entryPerimeter=0;" edge="1" parent="1" source="JpUHTsAU69_Z2bJbJT-Z-39" target="JpUHTsAU69_Z2bJbJT-Z-42">
          <mxGeometry width="50" height="50" relative="1" as="geometry">
            <mxPoint x="800" y="452.5" as="sourcePoint" />
            <mxPoint x="777.2727272727273" y="427.5" as="targetPoint" />
          </mxGeometry>
        </mxCell>
        <mxCell id="JpUHTsAU69_Z2bJbJT-Z-42" value="comment" style="ellipse;whiteSpace=wrap;html=1;" vertex="1" parent="1">
          <mxGeometry x="825" y="362.5" width="90" height="47.5" as="geometry" />
        </mxCell>
        <mxCell id="JpUHTsAU69_Z2bJbJT-Z-43" value="" style="endArrow=none;html=1;rounded=0;exitX=0.25;exitY=0;exitDx=0;exitDy=0;entryX=0.5;entryY=1;entryDx=0;entryDy=0;" edge="1" parent="1" source="JpUHTsAU69_Z2bJbJT-Z-39" target="JpUHTsAU69_Z2bJbJT-Z-44">
          <mxGeometry width="50" height="50" relative="1" as="geometry">
            <mxPoint x="710" y="435" as="sourcePoint" />
            <mxPoint x="687.2727272727273" y="410" as="targetPoint" />
          </mxGeometry>
        </mxCell>
        <mxCell id="JpUHTsAU69_Z2bJbJT-Z-44" value="&lt;b&gt;user_id&lt;/b&gt;" style="ellipse;whiteSpace=wrap;html=1;fillColor=#ffe6cc;strokeColor=#d79b00;" vertex="1" parent="1">
          <mxGeometry x="600" y="362.5" width="90" height="50" as="geometry" />
        </mxCell>
        <mxCell id="JpUHTsAU69_Z2bJbJT-Z-45" value="" style="endArrow=none;html=1;rounded=0;exitX=0.5;exitY=0;exitDx=0;exitDy=0;entryX=0.4;entryY=0.997;entryDx=0;entryDy=0;entryPerimeter=0;" edge="1" parent="1" source="JpUHTsAU69_Z2bJbJT-Z-39" target="JpUHTsAU69_Z2bJbJT-Z-46">
          <mxGeometry width="50" height="50" relative="1" as="geometry">
            <mxPoint x="790" y="425" as="sourcePoint" />
            <mxPoint x="767.2727272727273" y="400" as="targetPoint" />
          </mxGeometry>
        </mxCell>
        <mxCell id="JpUHTsAU69_Z2bJbJT-Z-46" value="comment_id" style="ellipse;whiteSpace=wrap;html=1;" vertex="1" parent="1">
          <mxGeometry x="700" y="350" width="100" height="50" as="geometry" />
        </mxCell>
        <mxCell id="JpUHTsAU69_Z2bJbJT-Z-47" value="" style="endArrow=none;html=1;rounded=0;exitX=1;exitY=0.25;exitDx=0;exitDy=0;entryX=0;entryY=0.5;entryDx=0;entryDy=0;" edge="1" parent="1">
          <mxGeometry width="50" height="50" relative="1" as="geometry">
            <mxPoint x="770" y="480" as="sourcePoint" />
            <mxPoint x="870" y="437.5" as="targetPoint" />
          </mxGeometry>
        </mxCell>
        <mxCell id="JpUHTsAU69_Z2bJbJT-Z-49" value="&lt;b&gt;post_id&lt;/b&gt;" style="ellipse;whiteSpace=wrap;html=1;fillColor=#dae8fc;strokeColor=#6c8ebf;" vertex="1" parent="1">
          <mxGeometry x="865" y="410" width="90" height="47.5" as="geometry" />
        </mxCell>
        <mxCell id="JpUHTsAU69_Z2bJbJT-Z-50" value="can do" style="rhombus;whiteSpace=wrap;html=1;" vertex="1" parent="1">
          <mxGeometry x="430" y="400" width="100" height="90" as="geometry" />
        </mxCell>
        <mxCell id="JpUHTsAU69_Z2bJbJT-Z-51" value="one" style="text;html=1;align=center;verticalAlign=middle;resizable=0;points=[];autosize=1;strokeColor=none;fillColor=none;" vertex="1" parent="1">
          <mxGeometry x="355" y="332.5" width="40" height="30" as="geometry" />
        </mxCell>
        <mxCell id="JpUHTsAU69_Z2bJbJT-Z-52" value="" style="endArrow=none;html=1;rounded=0;entryX=0;entryY=0.5;entryDx=0;entryDy=0;exitX=1;exitY=0.5;exitDx=0;exitDy=0;" edge="1" parent="1" source="JpUHTsAU69_Z2bJbJT-Z-50" target="JpUHTsAU69_Z2bJbJT-Z-53">
          <mxGeometry width="50" height="50" relative="1" as="geometry">
            <mxPoint x="455" y="387.5" as="sourcePoint" />
            <mxPoint x="615" y="347.5" as="targetPoint" />
          </mxGeometry>
        </mxCell>
        <mxCell id="JpUHTsAU69_Z2bJbJT-Z-53" value="many" style="text;html=1;align=center;verticalAlign=middle;resizable=0;points=[];autosize=1;strokeColor=none;fillColor=none;rotation=15;" vertex="1" parent="1">
          <mxGeometry x="560" y="452.5" width="50" height="30" as="geometry" />
        </mxCell>
        <mxCell id="JpUHTsAU69_Z2bJbJT-Z-55" value="" style="endArrow=none;html=1;rounded=0;entryX=0;entryY=0.5;entryDx=0;entryDy=0;" edge="1" parent="1" source="JpUHTsAU69_Z2bJbJT-Z-53" target="JpUHTsAU69_Z2bJbJT-Z-39">
          <mxGeometry width="50" height="50" relative="1" as="geometry">
            <mxPoint x="650" y="370" as="sourcePoint" />
            <mxPoint x="700" y="320" as="targetPoint" />
          </mxGeometry>
        </mxCell>
        <mxCell id="JpUHTsAU69_Z2bJbJT-Z-56" value="" style="endArrow=none;html=1;rounded=0;entryX=0.5;entryY=1;entryDx=0;entryDy=0;" edge="1" parent="1" target="JpUHTsAU69_Z2bJbJT-Z-1">
          <mxGeometry width="50" height="50" relative="1" as="geometry">
            <mxPoint x="370" y="330" as="sourcePoint" />
            <mxPoint x="700" y="320" as="targetPoint" />
          </mxGeometry>
        </mxCell>
        <mxCell id="JpUHTsAU69_Z2bJbJT-Z-57" value="" style="endArrow=none;html=1;rounded=0;entryX=0.808;entryY=0.939;entryDx=0;entryDy=0;entryPerimeter=0;" edge="1" parent="1" source="JpUHTsAU69_Z2bJbJT-Z-50" target="JpUHTsAU69_Z2bJbJT-Z-51">
          <mxGeometry width="50" height="50" relative="1" as="geometry">
            <mxPoint x="650" y="370" as="sourcePoint" />
            <mxPoint x="700" y="320" as="targetPoint" />
          </mxGeometry>
        </mxCell>
        <mxCell id="JpUHTsAU69_Z2bJbJT-Z-58" value="can have" style="rhombus;whiteSpace=wrap;html=1;" vertex="1" parent="1">
          <mxGeometry x="1080" y="302.5" width="100" height="87.5" as="geometry" />
        </mxCell>
        <mxCell id="JpUHTsAU69_Z2bJbJT-Z-59" value="" style="endArrow=none;html=1;rounded=0;entryX=0.678;entryY=0.994;entryDx=0;entryDy=0;exitX=0;exitY=0.5;exitDx=0;exitDy=0;entryPerimeter=0;" edge="1" parent="1" source="JpUHTsAU69_Z2bJbJT-Z-58" target="JpUHTsAU69_Z2bJbJT-Z-14">
          <mxGeometry width="50" height="50" relative="1" as="geometry">
            <mxPoint x="480" y="285" as="sourcePoint" />
            <mxPoint x="370" y="233" as="targetPoint" />
          </mxGeometry>
        </mxCell>
        <mxCell id="JpUHTsAU69_Z2bJbJT-Z-60" value="" style="endArrow=none;html=1;rounded=0;entryX=1;entryY=1;entryDx=0;entryDy=0;exitX=0.5;exitY=1;exitDx=0;exitDy=0;" edge="1" parent="1" source="JpUHTsAU69_Z2bJbJT-Z-58" target="JpUHTsAU69_Z2bJbJT-Z-39">
          <mxGeometry width="50" height="50" relative="1" as="geometry">
            <mxPoint x="1090" y="358" as="sourcePoint" />
            <mxPoint x="821" y="275" as="targetPoint" />
          </mxGeometry>
        </mxCell>
        <mxCell id="JpUHTsAU69_Z2bJbJT-Z-61" value="one" style="text;html=1;align=center;verticalAlign=middle;resizable=0;points=[];autosize=1;strokeColor=none;fillColor=none;rotation=15;" vertex="1" parent="1">
          <mxGeometry x="945" y="280" width="40" height="30" as="geometry" />
        </mxCell>
        <mxCell id="JpUHTsAU69_Z2bJbJT-Z-62" value="many" style="text;html=1;align=center;verticalAlign=middle;resizable=0;points=[];autosize=1;strokeColor=none;fillColor=none;rotation=-20;" vertex="1" parent="1">
          <mxGeometry x="1020" y="382.5" width="50" height="30" as="geometry" />
        </mxCell>
        <mxCell id="JpUHTsAU69_Z2bJbJT-Z-63" value="categories" style="rounded=0;whiteSpace=wrap;html=1;" vertex="1" parent="1">
          <mxGeometry x="1270" y="160" width="120" height="60" as="geometry" />
        </mxCell>
        <mxCell id="JpUHTsAU69_Z2bJbJT-Z-64" value="" style="endArrow=none;html=1;rounded=0;exitX=0;exitY=0.25;exitDx=0;exitDy=0;" edge="1" parent="1" source="JpUHTsAU69_Z2bJbJT-Z-63" target="JpUHTsAU69_Z2bJbJT-Z-65">
          <mxGeometry width="50" height="50" relative="1" as="geometry">
            <mxPoint x="1240" y="172.5" as="sourcePoint" />
            <mxPoint x="1210" y="140" as="targetPoint" />
          </mxGeometry>
        </mxCell>
        <mxCell id="JpUHTsAU69_Z2bJbJT-Z-65" value="category_id" style="ellipse;whiteSpace=wrap;html=1;" vertex="1" parent="1">
          <mxGeometry x="1150" y="110" width="90" height="50" as="geometry" />
        </mxCell>
        <mxCell id="JpUHTsAU69_Z2bJbJT-Z-66" value="" style="endArrow=none;html=1;rounded=0;exitX=0.183;exitY=0.022;exitDx=0;exitDy=0;exitPerimeter=0;" edge="1" parent="1" target="JpUHTsAU69_Z2bJbJT-Z-67" source="JpUHTsAU69_Z2bJbJT-Z-63">
          <mxGeometry width="50" height="50" relative="1" as="geometry">
            <mxPoint x="1365" y="137.5" as="sourcePoint" />
            <mxPoint x="1305" y="102.5" as="targetPoint" />
          </mxGeometry>
        </mxCell>
        <mxCell id="JpUHTsAU69_Z2bJbJT-Z-67" value="title" style="ellipse;whiteSpace=wrap;html=1;" vertex="1" parent="1">
          <mxGeometry x="1245" y="72.5" width="90" height="50" as="geometry" />
        </mxCell>
        <mxCell id="JpUHTsAU69_Z2bJbJT-Z-68" value="contains" style="rhombus;whiteSpace=wrap;html=1;" vertex="1" parent="1">
          <mxGeometry x="1160" y="209.25" width="70" height="67.5" as="geometry" />
        </mxCell>
        <mxCell id="JpUHTsAU69_Z2bJbJT-Z-69" value="" style="endArrow=none;html=1;rounded=0;exitX=0;exitY=1;exitDx=0;exitDy=0;entryX=1;entryY=0.5;entryDx=0;entryDy=0;" edge="1" parent="1" source="JpUHTsAU69_Z2bJbJT-Z-63" target="JpUHTsAU69_Z2bJbJT-Z-68">
          <mxGeometry width="50" height="50" relative="1" as="geometry">
            <mxPoint x="1280" y="185" as="sourcePoint" />
            <mxPoint x="1237" y="162" as="targetPoint" />
          </mxGeometry>
        </mxCell>
        <mxCell id="JpUHTsAU69_Z2bJbJT-Z-70" value="" style="endArrow=none;html=1;rounded=0;exitX=0;exitY=0.5;exitDx=0;exitDy=0;entryX=1;entryY=0.75;entryDx=0;entryDy=0;" edge="1" parent="1" source="JpUHTsAU69_Z2bJbJT-Z-68" target="JpUHTsAU69_Z2bJbJT-Z-14">
          <mxGeometry width="50" height="50" relative="1" as="geometry">
            <mxPoint x="1280" y="230" as="sourcePoint" />
            <mxPoint x="1240" y="266" as="targetPoint" />
          </mxGeometry>
        </mxCell>
        <mxCell id="JpUHTsAU69_Z2bJbJT-Z-71" value="one" style="text;html=1;align=center;verticalAlign=middle;resizable=0;points=[];autosize=1;strokeColor=none;fillColor=none;rotation=-20;" vertex="1" parent="1">
          <mxGeometry x="1220" y="205" width="40" height="30" as="geometry" />
        </mxCell>
        <mxCell id="JpUHTsAU69_Z2bJbJT-Z-73" value="many" style="text;html=1;align=center;verticalAlign=middle;resizable=0;points=[];autosize=1;strokeColor=none;fillColor=none;rotation=0;" vertex="1" parent="1">
          <mxGeometry x="1060" y="210" width="50" height="30" as="geometry" />
        </mxCell>
        <mxCell id="JpUHTsAU69_Z2bJbJT-Z-74" value="Role" style="rounded=0;whiteSpace=wrap;html=1;" vertex="1" parent="1">
          <mxGeometry x="50" y="330" width="90" height="46.25" as="geometry" />
        </mxCell>
        <mxCell id="JpUHTsAU69_Z2bJbJT-Z-75" value="" style="endArrow=none;html=1;rounded=0;exitX=0;exitY=0.25;exitDx=0;exitDy=0;entryX=0.628;entryY=1.004;entryDx=0;entryDy=0;entryPerimeter=0;" edge="1" parent="1" target="JpUHTsAU69_Z2bJbJT-Z-76" source="JpUHTsAU69_Z2bJbJT-Z-74">
          <mxGeometry width="50" height="50" relative="1" as="geometry">
            <mxPoint x="90" y="330" as="sourcePoint" />
            <mxPoint x="10" y="310" as="targetPoint" />
          </mxGeometry>
        </mxCell>
        <mxCell id="JpUHTsAU69_Z2bJbJT-Z-76" value="role_id" style="ellipse;whiteSpace=wrap;html=1;rotation=-15;" vertex="1" parent="1">
          <mxGeometry x="-60" y="265" width="90" height="50" as="geometry" />
        </mxCell>
        <mxCell id="JpUHTsAU69_Z2bJbJT-Z-77" value="" style="endArrow=none;html=1;rounded=0;exitX=0.5;exitY=0;exitDx=0;exitDy=0;entryX=0.5;entryY=1;entryDx=0;entryDy=0;" edge="1" parent="1" target="JpUHTsAU69_Z2bJbJT-Z-78" source="JpUHTsAU69_Z2bJbJT-Z-74">
          <mxGeometry width="50" height="50" relative="1" as="geometry">
            <mxPoint x="140" y="302.5" as="sourcePoint" />
            <mxPoint x="100" y="270.5" as="targetPoint" />
          </mxGeometry>
        </mxCell>
        <mxCell id="JpUHTsAU69_Z2bJbJT-Z-78" value="role_name" style="ellipse;whiteSpace=wrap;html=1;rotation=-5;" vertex="1" parent="1">
          <mxGeometry x="40" y="226.75" width="90" height="50" as="geometry" />
        </mxCell>
      </root>
    </mxGraphModel>
  </diagram>
</mxfile>
